<?xml version="1.0" encoding="iso-8859-1"?>
<!-- Uploaded to: SVG Repo, www.svgrepo.com, Generator: SVG Repo Mixer Tools -->
<svg xmlns="http://www.w3.org/2000/svg" xmlns:xlink="http://www.w3.org/1999/xlink" version="1.1" id="Layer_1"  viewBox="0 0 463.719 463.719" xml:space="preserve" width="512" height="512">
<g id="_x30_5._Young_genius_1_">
	<g id="XMLID_6_">
		<g>
			<g>
				<path style="fill:#FF7124;" d="M378.039,156.17c0,33.15-11.03,63.73-29.64,88.25c1.66-8.1,2.53-16.49,2.53-25.09      c0-39.52-18.36-74.64-46.81-96.9c-24.94,23.87-58.75,38.52-96,38.52c-15.7,0-30.8-2.61-44.88-7.41      c-16.38-5.59-34.39,2.17-41.03,18.16c-6.07,14.63-9.42,30.73-9.42,47.63c0,8.6,0.87,16.98,2.53,25.08      c-18.61-24.52-29.64-55.09-29.64-88.24c0-18.61,3.48-36.41,9.82-52.79C116.679,48.75,169.739,10,231.859,10      c43.84,0,83.17,19.29,109.96,49.86C364.379,85.58,378.039,119.28,378.039,156.17z M148.209,82.93L231.859,45      C199.839,45,169.349,58.82,148.209,82.93z"/>
			</g>
			<g>
				<path style="fill:#F2D59F;" d="M251.719,239.73v15.66h66.08v-52.54h-66.08V239.73z M211.999,239.73v-36.88h-66.08v52.54h66.08      V239.73z M350.929,219.33c0,8.6-0.87,16.99-2.53,25.09l-0.2,0.88c-11.26,44.77-35.81,90.94-67.17,116.17      c-15.05,12.12-31.67,19.41-49.15,19.41c-17.71,0-34.53-7.48-49.74-19.89c-31.15-25.39-55.51-71.4-66.66-115.99l-0.16-0.59      c-1.66-8.1-2.53-16.48-2.53-25.08c0-16.9,3.35-33,9.42-47.63c6.64-15.99,24.65-23.75,41.03-18.16      c14.08,4.8,29.18,7.41,44.88,7.41c37.25,0,71.06-14.65,96-38.52C332.569,144.69,350.929,179.81,350.929,219.33z"/>
			</g>
			<g>
				<path style="fill:#F2D59F;" d="M331.139,440.27l-0.02,0.45l-13.17-0.45c-56.08,17.83-116.3,17.83-172.38,0l-13.17,0.45      l-0.02-0.45c24.5-5.27,45.22-36.3,49.75-78.36l0.01-0.92c15.21,12.41,32.03,19.89,49.74,19.89c17.48,0,34.1-7.29,49.15-19.41      l0.36,0.44C285.909,403.97,306.639,435,331.139,440.27z"/>
			</g>
			<g>
				<polygon style="fill:#8ECAC1;" points="317.799,202.85 317.799,255.39 251.719,255.39 251.719,239.73 251.719,202.85     "/>
			</g>
			<g>
				<path style="fill:#FFFFFF;" d="M231.859,45l-83.65,37.93C169.349,58.82,199.839,45,231.859,45z"/>
			</g>
			<g>
				<polygon style="fill:#8ECAC1;" points="211.999,239.73 211.999,255.39 145.919,255.39 145.919,202.85 211.999,202.85     "/>
			</g>
		</g>
		<g>
			<g>
				<path style="fill:#5E2A41;" d="M231.759,463.719c-30.018,0-60.036-4.64-89.22-13.918c-5.263-1.674-8.173-7.297-6.5-12.561      c1.673-5.263,7.294-8.176,12.559-6.5c54.404,17.297,111.916,17.297,166.32,0c5.265-1.673,10.887,1.237,12.56,6.5      c1.673,5.264-1.237,10.887-6.5,12.561C291.795,459.079,261.777,463.719,231.759,463.719z"/>
			</g>
			<g>
				<path style="fill:#5E2A41;" d="M115.103,451.301c-5.369,0-9.807-4.259-9.988-9.665c-0.186-5.52,4.139-10.145,9.659-10.329      l30.454-1.03c5.501-0.16,10.147,4.133,10.336,9.652c0.189,5.52-4.133,10.147-9.652,10.336l-30.466,1.03      C115.331,451.299,115.216,451.301,115.103,451.301z"/>
			</g>
			<g>
				<path style="fill:#5E2A41;" d="M348.415,451.301c-0.113,0-0.227-0.002-0.341-0.006l-30.466-1.03      c-5.52-0.188-9.841-4.816-9.652-10.336c0.189-5.521,4.81-9.849,10.336-9.652l30.454,1.03c5.52,0.185,9.844,4.81,9.659,10.329      C358.222,447.042,353.783,451.301,348.415,451.301z"/>
			</g>
			<g>
				<path style="fill:#5E2A41;" d="M132.37,450.272c-4.611,0-8.757-3.208-9.767-7.898c-1.162-5.399,2.274-10.719,7.673-11.88      c9.37-2.016,18.625-9.481,26.06-21.023c8.337-12.94,13.818-29.757,15.85-48.631c0.591-5.492,5.527-9.458,11.013-8.872      c5.491,0.591,9.463,5.522,8.872,11.013c-4.924,45.727-28.068,80.716-57.589,87.066      C133.774,450.199,133.066,450.272,132.37,450.272z"/>
			</g>
			<g>
				<path style="fill:#5E2A41;" d="M331.149,450.272c-0.697,0-1.404-0.073-2.113-0.225c-29.532-6.354-52.676-41.343-57.59-87.068      c-0.59-5.491,3.383-10.421,8.874-11.011c5.493-0.583,10.421,3.384,11.011,8.874c2.028,18.871,7.507,35.686,15.846,48.629      c7.436,11.541,16.693,19.008,26.064,21.023c5.399,1.161,8.835,6.48,7.673,11.88C339.906,447.064,335.76,450.272,331.149,450.272      z"/>
			</g>
			<g>
				<path style="fill:#5E2A41;" d="M231.879,390.88c-19.193,0-38.055-7.449-56.062-22.142      c-30.758-25.07-57.597-71.556-70.039-121.313c-1.34-5.357,1.918-10.787,7.275-12.127c5.354-1.342,10.787,1.917,12.127,7.275      c11.447,45.778,35.693,88.183,63.276,110.665c14.349,11.706,28.956,17.641,43.422,17.641c14.281,0,28.707-5.786,42.878-17.198      c27.741-22.318,52.165-64.781,63.744-110.82c1.347-5.355,6.78-8.606,12.137-7.259c5.356,1.348,8.606,6.781,7.259,12.138      c-12.587,50.049-39.64,96.613-70.599,121.521C269.486,383.605,250.839,390.88,231.879,390.88z"/>
			</g>
			<g>
				<path style="fill:#5E2A41;" d="M251.719,249.73c-5.523,0-10-4.478-10-10c0-5.437-4.423-9.86-9.86-9.86      c-5.437,0-9.86,4.424-9.86,9.86c0,5.522-4.477,10-10,10c-5.523,0-10-4.478-10-10c0-16.465,13.395-29.86,29.86-29.86      c16.465,0,29.86,13.395,29.86,29.86C261.719,245.253,257.242,249.73,251.719,249.73z"/>
			</g>
			<g>
				<path style="fill:#5E2A41;" d="M211.999,265.391h-66.08c-5.523,0-10-4.478-10-10v-52.54c0-5.523,4.477-10,10-10h66.08      c5.523,0,10,4.477,10,10v52.54C221.999,260.913,217.522,265.391,211.999,265.391z M155.919,245.391h46.08v-32.54h-46.08V245.391      z"/>
			</g>
			<g>
				<path style="fill:#5E2A41;" d="M317.799,265.391h-66.08c-5.523,0-10-4.478-10-10v-52.54c0-5.523,4.477-10,10-10h66.08      c5.523,0,10,4.477,10,10v52.54C327.799,260.913,323.322,265.391,317.799,265.391z M261.719,245.391h46.08v-32.54h-46.08V245.391      z"/>
			</g>
			<g>
				<path style="fill:#5E2A41;" d="M348.395,254.421c-1.39,0-2.795-0.29-4.125-0.894c-4.252-1.928-6.604-6.542-5.667-11.115      c1.543-7.53,2.326-15.297,2.326-23.082c0-32.367-13.237-62.402-36.591-83.639c-26.866,22.802-60.695,35.259-96.219,35.259      c-16.456,0-32.642-2.673-48.107-7.945c-11.477-3.914-24.024,1.589-28.568,12.53c-5.743,13.841-8.655,28.576-8.655,43.795      c0,7.779,0.783,15.542,2.326,23.072c0.938,4.573-1.415,9.188-5.667,11.115c-4.252,1.931-9.272,0.658-12.095-3.062      c-20.722-27.302-31.675-59.906-31.675-94.286c0-19.433,3.531-38.408,10.495-56.399c11.266-29.06,30.779-53.874,56.432-71.769      C168.868,9.683,199.731,0,231.859,0c44.993,0,87.813,19.416,117.481,53.27c24.954,28.45,38.699,64.995,38.699,102.9      c0,34.387-10.953,66.994-31.675,94.296C354.425,253.02,351.448,254.421,348.395,254.421z M231.859,20      c-28.016,0-54.922,8.439-77.812,24.405c-22.381,15.612-39.403,37.255-49.225,62.59c-6.067,15.674-9.144,32.221-9.144,49.175      c0,16.117,2.76,31.787,8.119,46.528c1.469-11.991,4.538-23.653,9.175-34.83c8.576-20.654,32.072-31.103,53.496-23.792      c13.379,4.561,27.393,6.874,41.65,6.874c33.365,0,65.003-12.694,89.085-35.744c3.591-3.437,9.162-3.714,13.077-0.651      c27.826,21.771,45.393,53.259,49.643,88.143c5.357-14.741,8.116-30.409,8.116-46.528c0-33.051-11.982-64.912-33.738-89.716      C308.429,36.931,271.091,20,231.859,20z"/>
			</g>
			<g>
				<path style="fill:#5E2A41;" d="M148.206,92.931c-2.341,0-4.691-0.817-6.589-2.481c-4.153-3.641-4.567-9.959-0.926-14.111      C163.725,50.067,196.955,35,231.859,35c5.523,0,10,4.478,10,10c0,5.522-4.477,10-10,10c-29.145,0-56.894,12.583-76.131,34.523      C153.752,91.778,150.985,92.931,148.206,92.931z"/>
			</g>
		</g>
	</g>
</g>















</svg>