<?xml version="1.0" encoding="iso-8859-1"?>
<!-- Uploaded to: SVG Repo, www.svgrepo.com, Generator: SVG Repo Mixer Tools -->
<svg fill="#000000" height="800px" width="800px" version="1.1" id="Layer_1" xmlns="http://www.w3.org/2000/svg" xmlns:xlink="http://www.w3.org/1999/xlink" 
	 viewBox="0 0 512 512" xml:space="preserve">
<g>
	<g>
		<path d="M512,223.555c0-11.776-9.536-21.333-21.333-21.333h-33.216l-6.357-42.667H60.907l-6.336,42.667H21.333
			C9.536,202.222,0,211.779,0,223.555s9.536,21.333,21.333,21.333h8.619c-9.664,11.947-15.872,26.923-15.872,42.24
			c0,22.955,12.416,43.755,31.893,54.933C72.469,436.099,157.355,500.888,256,500.888s183.552-64.789,210.027-158.827
			c19.477-11.179,31.893-31.979,31.893-54.933c0-15.317-6.208-30.293-15.872-42.24h8.619C502.464,244.888,512,235.331,512,223.555z
			 M441.003,306.755c-6.976,2.368-12.245,8.192-13.909,15.403C408.576,402.264,338.24,458.222,256,458.222
			c-82.219,0-152.576-55.957-171.072-136.064c-1.685-7.211-6.955-13.035-13.931-15.403c-8.512-2.901-14.251-10.773-14.251-19.627
			c0-8.811,6.891-19.307,14.72-22.421c6.869-2.731,11.84-8.811,13.12-16.107c0.256-1.408,0.533-2.624,0.832-3.712H426.56
			c0.32,1.088,0.619,2.304,0.853,3.691c1.28,7.296,6.251,13.397,13.141,16.128c7.829,3.115,14.699,13.611,14.699,22.421
			C455.253,295.982,449.515,303.854,441.003,306.755z"/>
	</g>
</g>
<g>
	<g>
		<path d="M438.232,73.057c-1.728-12.736-6.763-24.811-14.549-34.965c-18.112-23.637-50.24-32.917-79.915-23.125L261.763,42.06
			c-6.592,2.176-13.781,2.069-20.203-0.256l-70.699-25.472c-19.947-7.168-42.069-5.547-60.693,4.459
			c-17.813,9.557-30.229,25.387-34.944,44.608c-0.597,2.517-1.088,5.077-1.408,7.403l-6.549,44.096H444.76L438.232,73.057z"/>
	</g>
</g>
<g>
	<g>
		<path d="M320.002,266.224c-7.851,0-15.125,2.283-21.44,5.973c-18.219-5.845-35.008-5.973-42.56-5.973
			c-7.467,0-24.149,0.107-42.432,6.037c-6.357-3.733-13.653-6.037-21.568-6.037c-23.573,0-42.667,19.093-42.667,42.667
			c0,23.573,19.093,42.667,42.667,42.667c22.869,0,41.365-18.027,42.453-40.619c7.701-1.536,15.275-2.048,21.547-2.048
			c4.117,0,12.373,0.021,21.525,1.856c0.981,22.677,19.541,40.811,42.475,40.811c23.573,0,42.667-19.093,42.667-42.667
			C362.669,285.317,343.576,266.224,320.002,266.224z"/>
	</g>
</g>
<g>
	<g>
		<path d="M312.762,399.536c-24.277-21.333-53.525-25.813-99.051-26.645c-11.221-0.64-21.504,9.173-21.717,20.949
			c-0.192,11.776,9.173,21.504,20.971,21.717c41.259,0.747,58.667,4.629,71.616,16.021c4.053,3.563,9.067,5.312,14.08,5.312
			c5.931,0,11.819-2.453,16.021-7.253C322.468,420.805,321.615,407.322,312.762,399.536z"/>
	</g>
</g>
</svg>