<?xml version="1.0" encoding="iso-8859-1"?>
<!-- Uploaded to: SVG Repo, www.svgrepo.com, Generator: SVG Repo Mixer Tools -->
<svg fill="#000000" height="800px" width="800px" version="1.1" id="Layer_1" xmlns="http://www.w3.org/2000/svg" xmlns:xlink="http://www.w3.org/1999/xlink" 
	 viewBox="0 0 512 512" xml:space="preserve">
<g>
	<g>
		<path d="M460.245,106.548h-32.213l-11.136-25.6c-3.691-15.083-17.941-47.253-24.256-55.509
			c-17.173-22.4-47.637-31.211-77.568-21.248l-55.659,24.384c-5.675,1.899-11.989,1.792-17.664-0.235l-65.45-23.573
			c-15.936-5.717-33.792-4.032-50.24,4.757C106.347,20.105,90.88,39.818,86.08,59.594c-0.427,1.259-1.6,4.139-2.88,7.296
			c-2.88,7.189-4.373,10.923-5.184,13.461l-11.413,26.197H51.776C23.232,106.548,0,129.759,0,158.303v3.157
			c0,25.408,18.475,46.507,42.667,50.837v21.867c66.411-27.2,146.005-27.307,212.501-0.299
			c32.32-13.376,67.797-20.16,103.403-20.651h7.509c35.52,0.405,70.955,7.083,103.253,20.331v-21.248
			c24.214-4.33,42.667-25.408,42.667-50.837v-3.157C512,129.759,488.789,106.548,460.245,106.548z M469.333,161.461
			c0,4.928-4.16,9.088-9.088,9.088H448H64H51.776c-4.949,0-9.109-4.16-9.109-9.088v-3.157c0-4.928,4.16-9.088,9.109-9.088h28.8
			h333.461h46.208c4.928,0,9.088,4.16,9.088,9.088V161.461z"/>
	</g>
</g>
<g>
	<g>
		<path d="M68.23,270.176c1.664,33.216,10.261,67.669,38.379,70.08c43.328,3.669,75.947-3.243,96.747-20.587
			c17.984-15.019,24.256-35.627,26.389-49.749C178.673,251.168,119.153,251.275,68.23,270.176z"/>
	</g>
</g>
<g>
	<g>
		<path d="M282.259,269.291c2.133,14.123,8.405,34.709,26.389,49.728c20.801,17.366,53.291,24.299,96.747,20.587
			c28.117-2.389,36.693-36.864,38.379-70.059C392.851,250.647,333.353,250.54,282.259,269.291z"/>
	</g>
</g>
<g>
	<g>
		<path d="M409.707,382.085c-8.981,0.768-17.664,1.152-25.984,1.152c-44.693,0-80.427-10.944-106.411-32.683
			c-8.747-7.296-15.531-15.275-21.077-23.424c-5.611,8.363-12.565,16.576-21.547,24.064
			c-25.984,21.739-61.717,32.683-106.432,32.683c-8.341,0-16.981-0.384-25.963-1.152c-17.643-1.493-42.176-9.024-59.627-35.499
			v108.565c0,30.912,25.173,56.085,56.107,56.085h314.453c30.933,0,56.107-25.173,56.107-56.085V346.587
			C451.883,373.061,427.349,380.592,409.707,382.085z M277.333,447.878h-42.667c-11.797,0-21.333-9.557-21.333-21.333
			s9.536-21.333,21.333-21.333h42.667c11.797,0,21.333,9.557,21.333,21.333S289.131,447.878,277.333,447.878z"/>
	</g>
</g>
</svg>